<svg width="200" height="240" viewBox="0 0 200 240" xmlns="http://www.w3.org/2000/svg">
  <!-- Main Cloud Shape -->
  <g transform="translate(20, 20) scale(2.5)">
    <path fill="none" 
          stroke="#fff" 
          stroke-width="3" 
          stroke-miterlimit="10" 
          d="M55,50c4.565,0,8-3.435,8-8c0-4.565-3.435-9-8-9
          c0-11.414-9.586-20-21-20c-10.102,0-19.2,6.423-21,16c0,0-1.165,0-2,0
          C5.292,29,1,34.292,1,40s4.292,10,10,10H55z"/>
  </g>

  <!-- Storage Elements -->
  <rect x="40" y="140" width="120" height="8" rx="4" fill="#fff"/>
  <rect x="40" y="156" width="120" height="8" rx="4" fill="#fff"/>
  <rect x="40" y="172" width="120" height="8" rx="4" fill="#fff"/>

  <!-- CloudNest Text -->
  <text x="100" y="220" 
        font-family="Arial, sans-serif" 
        font-size="24" 
        font-weight="bold" 
        text-anchor="middle" 
        fill="#fff">
    CloudNest
  </text>
</svg>
